<?xml version="1.0" encoding="utf-8"?>
<!-- Generator: Adobe Illustrator 24.2.3, SVG Export Plug-In . SVG Version: 6.00 Build 0)  -->
<svg version="1.1" id="Layer_1" xmlns="http://www.w3.org/2000/svg" xmlns:xlink="http://www.w3.org/1999/xlink" x="0px" y="0px"
	 viewBox="0 0 841.89 595.28" style="enable-background:new 0 0 841.89 595.28;" xml:space="preserve">
<style type="text/css">
	.st0{fill:url(#SVGID_1_);stroke:#000000;stroke-width:0.25;stroke-miterlimit:10;}
	.st1{fill:#F9B233;stroke:#000000;stroke-width:0.5;stroke-miterlimit:10;}
	.st2{fill:none;stroke:#F39200;stroke-width:0.7245;stroke-miterlimit:10;}
	.st3{fill:#FFFFFF;stroke:#F39200;stroke-width:0.7245;stroke-miterlimit:10;}
	.st4{fill:none;stroke:#F39200;stroke-width:0.8127;stroke-miterlimit:10;}
	.st5{fill:#FFFFFF;stroke:#F39200;stroke-width:0.8127;stroke-miterlimit:10;}
	.st6{fill:none;stroke:#F39200;stroke-width:0.6141;stroke-miterlimit:10;}
	.st7{fill:#FFFFFF;stroke:#F39200;stroke-width:0.6141;stroke-miterlimit:10;}
	.st8{fill:none;stroke:#F39200;stroke-miterlimit:10;}
	.st9{fill:#FFFFFF;stroke:#F39200;stroke-miterlimit:10;}
</style>
<g>
	<g>
		<radialGradient id="SVGID_1_" cx="422.1154" cy="297.7584" r="143.4927" gradientUnits="userSpaceOnUse">
			<stop  offset="0.5938" style="stop-color:#FFFFFF"/>
			<stop  offset="0.7451" style="stop-color:#FEFEFE"/>
			<stop  offset="0.7997" style="stop-color:#F9F9F9"/>
			<stop  offset="0.8385" style="stop-color:#F0F0F0"/>
			<stop  offset="0.87" style="stop-color:#E4E4E4"/>
			<stop  offset="0.8969" style="stop-color:#D4D4D3"/>
			<stop  offset="0.9208" style="stop-color:#BFBEBE"/>
			<stop  offset="0.9424" style="stop-color:#A4A4A4"/>
			<stop  offset="0.9622" style="stop-color:#848483"/>
			<stop  offset="0.9806" style="stop-color:#5B5B5A"/>
			<stop  offset="0.997" style="stop-color:#1F1F1E"/>
			<stop  offset="1" style="stop-color:#000000"/>
		</radialGradient>
		<path class="st0" d="M426.08,444.09c-28.17,0-64-12.74-86.63-36.28h0c-3.56-5.02-4.66-11.38-2.95-17.29
			c2.24-7.76,5.83-17.9,9.96-21.28c-7.29,2.62-14.92,4.45-22.77,5.47l0,0c-2.93,0.38-5.85-0.8-7.71-3.1l0,0
			c-19.28-23.93-32.79-43.99-34.3-74.72c-1.83-37.18,13.71-63.95,18.61-70.5l0,0c2.27-2.05,3.64-4.26,7.21-4.69l0,0
			c1.73-0.08,3.49-0.12,5.21-0.12c11.91,0,23.59,1.93,34.62,5.62c-6.06-12.8-9.6-26.87-10.31-41.62l0,0
			c-0.14-2.82,1.14-5.53,3.4-7.22l0,0c23.53-17.61,51.55-26.92,81.02-26.92c30.1,0,58.6,9.68,82.42,27.99l0,0
			c2.27,1.75,3.51,4.52,3.3,7.38l0,0c-1.07,14.16-4.76,27.67-10.78,39.94c10.63-3.41,21.83-5.18,33.23-5.18
			c1.93,0,3.89,0.05,5.82,0.15l0,0c3.06,0.16,5.8,1.95,7.17,4.69l0,0c9.41,18.86,20.12,44.73,20.12,65.93
			c0,26.89-13.81,47.32-28.71,69.6v0c-1.43,2.13-3.74,3.51-6.3,3.74l0,0c-3.31,0.3-6.67,0.45-9.99,0.45c0,0,0,0,0,0
			c-8.27,0-16.39-0.92-24.25-2.72c8.84,8.29,13.68,19.36,15.99,26.11c1.24,3.62,0.89,7.6-0.95,10.96l0,0
			C488.42,430.13,454.81,444.09,426.08,444.09z"/>
		<path class="st1" d="M537.37,235.06c-1.5-3.09-4.65-5-8.09-4.99c-23.06,0.07-45.93,7.89-64.44,23.88
			c19.09-16.5,30.25-38.85,33.28-62.46c0.42-3.3-1.04-6.58-3.76-8.5c-20.63-14.53-45.78-23.06-72.93-23.06
			c-26.29,0-50.71,8-70.97,21.7c-3.17,2.15-4.89,5.85-4.48,9.66c2.59,23.88,13.48,46.64,32.52,63.54
			c-18.7-16.6-42.08-24.72-65.66-24.75c-3.01,0-5.75,1.72-7.13,4.39c-8.15,15.85-17.67,33.38-15.65,61.02
			c2.09,28.52,13.76,47.11,29.94,67.54c1.61,2.03,4.2,3.06,6.76,2.62c18.31-3.14,35.79-11.34,50.25-24.75
			c-13.55,12.56-24.92,32.44-30.1,49.9c-0.89,2.99-0.11,6.23,2.04,8.49c18.49,19.53,51.85,31.75,77.49,31.75
			c26.52,0,66.43-18.65,72.84-37.1c0.52-1.51,0.55-3.16,0.02-4.67c-6.58-19.11-22.37-37.9-39.57-50.4
			c18.77,13.65,40.84,19.64,62.68,18.64c2.82-0.13,5.4-1.62,6.98-3.96c12.71-18.79,25.37-36.74,25.37-61.22
			C554.76,273.87,545.45,251.73,537.37,235.06z"/>
		<circle class="st2" cx="454.84" cy="202.58" r="21.51"/>
		<path class="st3" d="M443.79,209.59c0-1.06-2.41,0.14-2.41,2.45c0,3.42,2.77,6.19,6.19,6.19c2.35,0,3.51-2.45,2.41-2.45
			C446.56,215.78,443.79,213.01,443.79,209.59z"/>
		<path class="st3" d="M470.38,192.85c0-3.42-2.77-6.19-6.19-6.19c-2.35,0-3.51,2.45-2.41,2.45c3.42,0,6.19,2.77,6.19,6.19
			C467.97,196.36,470.38,195.16,470.38,192.85z"/>
		<circle class="st4" cx="484.36" cy="296.19" r="24.13"/>
		<path class="st5" d="M471.97,304.05c0-1.19-2.7,0.15-2.7,2.75c0,3.83,3.11,6.94,6.94,6.94c2.64,0,3.94-2.75,2.7-2.75
			C475.07,311,471.97,307.89,471.97,304.05z"/>
		<path class="st5" d="M501.78,285.28c0-3.83-3.11-6.94-6.94-6.94c-2.64,0-3.94,2.75-2.7,2.75c3.83,0,6.94,3.11,6.94,6.94
			C499.08,289.22,501.78,287.87,501.78,285.28z"/>
		<circle class="st6" cx="427.33" cy="259.73" r="18.24"/>
		<path class="st7" d="M417.96,265.67c0-0.9-2.04,0.12-2.04,2.08c0,2.9,2.35,5.25,5.25,5.25c2,0,2.98-2.08,2.04-2.08
			C420.31,270.92,417.96,268.57,417.96,265.67z"/>
		<path class="st7" d="M440.49,251.48c0-2.9-2.35-5.25-5.25-5.25c-2,0-2.98,2.08-2.04,2.08c2.9,0,5.25,2.35,5.25,5.25
			C438.45,254.46,440.49,253.44,440.49,251.48z"/>
		<circle class="st4" cx="363.58" cy="292.34" r="24.13"/>
		<path class="st5" d="M351.19,300.2c0-1.19-2.7,0.15-2.7,2.75c0,3.83,3.11,6.94,6.94,6.94c2.64,0,3.94-2.75,2.7-2.75
			C354.3,307.14,351.19,304.03,351.19,300.2z"/>
		<path class="st5" d="M381.01,281.42c0-3.83-3.11-6.94-6.94-6.94c-2.64,0-3.94,2.75-2.7,2.75c3.83,0,6.94,3.11,6.94,6.94
			C378.31,285.36,381.01,284.02,381.01,281.42z"/>
		<circle class="st8" cx="438.79" cy="365.84" r="29.69"/>
		<path class="st9" d="M423.54,375.52c0-1.47-3.32,0.19-3.32,3.38c0,4.72,3.82,8.54,8.54,8.54c3.25,0,4.85-3.38,3.32-3.38
			C427.36,384.06,423.54,380.23,423.54,375.52z"/>
		<path class="st9" d="M460.23,352.41c0-4.72-3.82-8.54-8.54-8.54c-3.25,0-4.85,3.38-3.32,3.38c4.72,0,8.54,3.82,8.54,8.54
			C456.9,357.26,460.23,355.6,460.23,352.41z"/>
	</g>
	<g>
		<path d="M306.84,283.71c3.57-2.45,7.58-3.68,12.02-3.68c3.23,0,5.86,0.75,7.9,2.26c2.04,1.51,3.06,3.46,3.06,5.85
			c0,3.19-1.77,5.32-5.31,6.4v0.26c0.36,0.09,0.8,0.22,1.31,0.37c1.67-0.41,2.97-1.23,3.93-2.48s1.43-2.76,1.43-4.52
			c0-2.22-0.88-4.19-2.63-5.9v-0.14l0.25,0.21c1.97,1.58,2.95,3.6,2.95,6.07c0,3.41-1.7,5.78-5.09,7.12c1.47,0.7,2.61,1.7,3.43,3
			c0.82,1.3,1.23,2.76,1.23,4.38c0,2.33-0.81,4.19-2.43,5.59c-1.62,1.4-3.78,2.1-6.48,2.1h-16.12l3.11-2.76v-10.15
			c-0.89,0-1.92,0.09-3.11,0.28l-0.18-0.68c1.34-0.14,2.43-0.21,3.29-0.21v-1.24h-0.56c-0.84,0-1.9,0.06-3.17,0.19l0.99-2.25
			l0.36,0.02c0.59,0.05,1.03,0.07,1.33,0.07c0.45,0,0.8,0.02,1.06,0.07v-8.81L306.84,283.71z M330.75,297.49
			c1.61,1.3,2.41,3.26,2.41,5.9c0,2.66-0.89,4.85-2.68,6.58c-1.74,1.69-4.3,2.53-7.68,2.53H307.5l-0.38-0.63h14.2
			c3.09,0,5.32-0.33,6.69-0.98c3.03-1.47,4.55-4.02,4.55-7.66c0-2.03-0.69-3.87-2.07-5.53L330.75,297.49z M313.89,283.36v10.57
			c0.17-0.02,0.28-0.02,0.34-0.02l0.41,0.02c0.06,0,0.19,0,0.38,0v-9.58c1.29-0.62,2.55-0.94,3.78-0.94c1.41,0,2.52,0.27,3.34,0.8
			c0.82,0.53,1.51,1.44,2.08,2.72l-0.63-0.37c-1.13-1.77-2.73-2.65-4.82-2.65c-1.17,0-2.22,0.34-3.15,1.03v9h0.95
			c2.87,0,5-0.5,6.4-1.49c1.4-0.99,2.1-2.51,2.1-4.56c0-1.8-0.58-3.25-1.74-4.35c-1.16-1.1-2.69-1.65-4.58-1.65
			C317.08,281.88,315.46,282.38,313.89,283.36z M313.89,295.85v12.91h1.13v-11.51c1.07-0.08,1.83-0.12,2.3-0.12
			c2.49,0,4.3,0.24,5.41,0.73c1.12,0.48,2.01,1.41,2.67,2.76h-0.27c-0.74-1.08-1.66-1.82-2.77-2.24c-1.11-0.41-2.74-0.62-4.88-0.62
			l-1.85,0.05v10.94h0.72l3.26-0.12c4.23-0.31,6.35-2.45,6.35-6.42c0-2.48-0.7-4.18-2.09-5.1c-1.4-0.91-4.01-1.37-7.83-1.37
			C315.65,295.76,314.94,295.79,313.89,295.85z"/>
		<path d="M336.06,280.53h10.76l-3.17,3.21v25.05h0.18l0.81,0.07h0.2v-24.88l2.43-2.55l0.32,0.52l-2.18,2.32v24.6
			c0.68,0.06,1.32,0.09,1.94,0.09c2.39,0,4.19-0.55,5.41-1.65c1.22-1.1,2.04-2.92,2.47-5.45c1.41,4.26,2.86,7.18,4.34,8.74h-23.5
			l3.11-2.65V283.5L336.06,280.53z M361.77,310.4l-1.01,2.11h-23.5l-0.56-0.63h23.82l0.65-1.48c-1.65-2.11-2.97-4.46-3.96-7.05
			l-0.09-0.26l0.72,0.28l0.16,0.4c1.01,2.31,2.21,4.44,3.6,6.4L361.77,310.4z"/>
		<path d="M373.92,280.22c3.65,0,6.56,1.44,8.75,4.31c2.18,2.87,3.28,6.72,3.28,11.53c0,4.55-1.08,8.17-3.23,10.87
			s-5.05,4.05-8.68,4.05c-2.87,0-5.42-0.95-7.65-2.86c-3.29-2.81-4.93-6.97-4.93-12.49c0-4.72,1.13-8.47,3.38-11.25
			C367.08,281.61,370.11,280.22,373.92,280.22z M373.92,282.24c-5.07,0-7.61,4.64-7.61,13.92c0,8.58,2.5,12.86,7.5,12.86
			c2.33,0,4.1-1.14,5.31-3.41c1.22-2.27,1.82-5.6,1.82-9.97c0-4.95-0.59-8.4-1.76-10.36C377.96,283.25,376.21,282.24,373.92,282.24z
			 M381.1,281.42c2.15,1.08,3.84,2.92,5.09,5.53c1.25,2.61,1.87,5.62,1.87,9.04c0,5.03-1.23,9.09-3.68,12.18
			c-2.45,3.09-5.68,4.64-9.67,4.64c-2.55,0-4.94-0.9-7.16-2.69V310c1.86,1.42,4.19,2.13,7,2.13c3.77,0,6.86-1.48,9.27-4.43
			s3.62-6.72,3.62-11.32c0-3.42-0.55-6.41-1.65-8.97c-1.1-2.56-2.67-4.48-4.69-5.74V281.42z M378.74,285.75l-0.38-0.23
			c-1.44-0.83-2.76-1.24-3.96-1.24c-3.95,0-5.92,4.04-5.92,12.11c0,5.9,1.22,9.82,3.67,11.74l-0.2,0.23
			c-1.5-1.11-2.57-2.57-3.21-4.37c-0.64-1.8-0.96-4.24-0.96-7.32c0-8.67,2.19-13,6.57-13C376.35,283.67,377.81,284.36,378.74,285.75
			z"/>
		<path d="M420.39,280.53l-3.08,3.26v24.06l2.77,2.74h-10.35l3.13-2.74v-15.77l-7.14,20.43h-2.16l-0.18-0.63h1.96l7.52-21.79v-3.59
			l-8.37,24.06h-1.58l-6.17-18.91v12.4c0,1.66,0.11,2.83,0.32,3.51c0.21,0.69,0.71,1.44,1.49,2.27l2.03,2.67h-11.77l-0.41-0.63
			h11.05l-0.83-1.29h-10.04l0.47-0.26c1.67-0.95,2.76-1.92,3.3-2.89c0.53-0.98,0.8-2.52,0.8-4.63v-19.38l-2.97-2.91h11.64
			l-3.26,3.07l6.37,19.61l0.81-2.04l-5.76-17.39l2.95-2.27l0.47,0.4l-2.81,2.06l5.36,16.33l5.81-16.71l-2.75-3.07H420.39z
			 M394.9,286.08v16.82c0,2.58,0.24,4.35,0.71,5.32c0.47,0.97,1.45,1.67,2.94,2.11l-0.2-0.35c-1.47-1.06-2.21-2.59-2.21-4.59v-1.73
			V289.8L394.9,286.08z M421.65,282.35l-2.54,1.9v23.62l3.92,4.64h-11.95l-0.32-0.63h10.9l-3.13-3.68v-24.35l2.66-1.9L421.65,282.35
			z"/>
		<path d="M454.11,280.53l-3.08,3.26v24.06l2.77,2.74h-10.35l3.13-2.74v-15.77l-7.14,20.43h-2.16l-0.18-0.63h1.96l7.52-21.79v-3.59
			l-8.37,24.06h-1.58l-6.17-18.91v12.4c0,1.66,0.11,2.83,0.32,3.51c0.21,0.69,0.71,1.44,1.49,2.27l2.03,2.67H422.5l-0.41-0.63h11.05
			l-0.83-1.29h-10.04l0.47-0.26c1.67-0.95,2.76-1.92,3.3-2.89c0.53-0.98,0.8-2.52,0.8-4.63v-19.38l-2.97-2.91h11.64l-3.26,3.07
			l6.37,19.61l0.81-2.04l-5.76-17.39l2.95-2.27l0.47,0.4l-2.81,2.06l5.36,16.33l5.81-16.71l-2.75-3.07H454.11z M428.62,286.08v16.82
			c0,2.58,0.24,4.35,0.71,5.32c0.47,0.97,1.45,1.67,2.94,2.11l-0.2-0.35c-1.47-1.06-2.21-2.59-2.21-4.59v-1.73V289.8L428.62,286.08z
			 M455.37,282.35l-2.54,1.9v23.62l3.92,4.64h-11.95l-0.32-0.63h10.9l-3.13-3.68v-24.35l2.66-1.9L455.37,282.35z"/>
		<path d="M478.35,280.53l-2.34,2.76l3.69,10.22l0.9-0.52l-3.33-9.23l2.39-2.86l0.59,0.26l-2.27,2.74l3.15,8.74
			c0.18-0.14,0.29-0.23,0.32-0.26l0.74-0.66c0.45-0.37,0.74-0.64,0.86-0.8c0.39,1.78,0.99,3.37,1.8,4.78
			c-0.44-0.03-0.75-0.05-0.95-0.05c-1.43,0-2.47,0.23-3.13,0.7l4.07,11.51l3.38,2.72h-11.37l3.11-2.72l-2.5-6.84
			c-1.65,1.73-2.92,3.38-3.8,4.94l-0.52-0.14c0.89-1.53,2.21-3.24,3.96-5.13l0.18-0.23l-0.43-1.03c-1.79,1.55-3.26,3.34-4.43,5.39
			l-0.41-0.68c-0.78-1.3-1.78-2.77-2.99-4.43l-0.23-0.28c-1.16,2.67-1.73,4.84-1.73,6.51c0,0.98,0.16,1.82,0.48,2.5
			c0.32,0.68,1.1,1.82,2.33,3.41c0.11,0.14,0.27,0.36,0.5,0.66H458.2l-0.45-0.63h11.46l-0.38-0.49c-0.99-1.25-1.64-2.22-1.95-2.92
			c-0.31-0.7-0.46-1.51-0.46-2.45c0-1.59,0.62-3.97,1.87-7.12l-0.99-1.08c-0.2,0.5-0.44,1.23-0.74,2.2l-0.74,2.39
			c-0.41,1.28-0.61,2.34-0.61,3.19c0,0.87,0.14,1.6,0.43,2.18c0.29,0.58,0.89,1.37,1.8,2.37c0.09,0.09,0.23,0.24,0.41,0.45h-11.26
			c2.15-1.16,3.85-2.71,5.1-4.66s2.5-4.97,3.73-9.04l0.09-0.33c-0.8-0.7-1.94-1.13-3.44-1.29c0.83-1.28,1.46-2.62,1.91-4.01
			c0.21,0.2,0.34,0.33,0.38,0.37l1.01,0.98c0.35,0.34,0.76,0.7,1.24,1.05l0.41-1.03l-0.27-0.23c-0.75-0.69-1.38-1.24-1.89-1.66
			l-0.2-0.16l0.36-0.52c0.8,0.55,1.56,1.18,2.3,1.9l3.06-8.76l-2.39-2.67H478.35z M471.78,285.33l-3.58,9.84
			c1.14,1.22,2.12,2.42,2.95,3.61l1.04,1.5c0.01,0.02,0.09,0.12,0.23,0.3c0.14-0.14,0.21-0.23,0.23-0.26l0.32-0.4
			c0.05-0.06,0.13-0.16,0.25-0.3c-1.05-1.69-2.27-3.21-3.67-4.57l2.88-7.92L471.78,285.33z M472.79,288.05l-2.48,6.8
			c0.14,0.16,0.21,0.25,0.23,0.28l0.92,1.08c0.5,0.56,1.13,1.44,1.89,2.62l0.23,0.35c0.65-0.84,1.41-1.68,2.3-2.51L472.79,288.05z
			 M485.01,292.05c0.33,1.41,1.16,3.34,2.48,5.79c-0.33-0.05-0.52-0.07-0.56-0.07l-1.82-0.16c-0.83-0.08-1.43-0.12-1.8-0.12
			c-0.06,0-0.21,0.01-0.45,0.02l3.76,10.38l5.02,4.62H478.6l-0.43-0.63h11.95l-4.05-3.73l-4.01-11.04c0.51-0.14,1.1-0.21,1.76-0.21
			c0.81,0,1.71,0.07,2.7,0.21l-0.27-0.52c-0.96-1.84-1.61-3.51-1.94-4.99L485.01,292.05z"/>
		<path d="M518.08,280.53c-1.71,0.92-2.81,1.77-3.31,2.53c-0.75,1.19-1.13,2.98-1.13,5.37v1.52v20.64h-3.8l-10.63-21.46v12.72
			l-0.02,1.05l0.27,3.37c0.3,1.56,0.98,2.72,2.05,3.47l0.18,0.16c-2.07-0.72-3.11-3.02-3.11-6.91l0.02-2.2v-12.82l-1.22-2.46v13.5
			c0,4.28,0.27,7.08,0.81,8.41c0.54,1.33,1.81,2.3,3.8,2.91l1.96,2.18h-12.2l-0.36-0.63h11.28l-1.17-1.29h-10.49
			c1.83-0.69,3.05-1.61,3.65-2.76s0.9-3.14,0.9-5.95v-18.75l-2.99-2.6h11.39l-3.2,2.23l10.9,22.12v-2.81l-9.34-18.93l3.15-2.23
			l0.43,0.45l-2.79,1.97l8.55,17.48v-10.94v-1.24c0-2.72-0.21-4.53-0.64-5.45c-0.43-0.91-1.48-1.79-3.16-2.64H518.08z
			 M518.87,282.26l-0.41,0.7c-1.16,0.28-1.94,0.8-2.35,1.56c-0.41,0.76-0.62,2.03-0.62,3.83v24.16h-4.84l-0.29-0.63h4.52v-23.29
			c0-2.2,0.27-3.74,0.82-4.6C516.25,283.11,517.31,282.54,518.87,282.26z"/>
		<path d="M541.22,280.78c-0.78,1.09-1.4,2.23-1.87,3.42c-0.92,2.34-1.52,3.78-1.82,4.31l-0.11,0.14c-0.06-0.17-0.11-0.3-0.14-0.4
			c-0.42-1.41-0.77-2.38-1.04-2.93c-0.27-0.55-0.68-1.07-1.22-1.57c-1.37-1.27-2.92-1.9-4.66-1.9c-1.61,0-2.94,0.46-4.01,1.39
			c-1.07,0.93-1.6,2.1-1.6,3.5c0,2.62,1.9,4.41,5.7,5.37l3.8,0.96c5.42,1.36,8.13,4.33,8.13,8.93c0,2.56-0.93,4.71-2.78,6.46
			c-1.85,1.74-4.15,2.61-6.88,2.61c-1.71,0-3.62-0.27-5.74-0.82l-2.63-0.68c-1.07-0.27-1.94-0.4-2.63-0.4
			c-0.92,0-1.86,0.3-2.84,0.91l-0.18-0.33c1.86-2.92,3.17-5.7,3.92-8.34l0.41,0.12c0.32,2.45,1.26,4.36,2.84,5.72
			c1.58,1.36,3.64,2.04,6.19,2.04c2.01,0,3.61-0.48,4.79-1.45s1.78-2.27,1.78-3.91c0-1.89-0.83-3.45-2.48-4.69
			c-1.19-0.87-3.62-1.69-7.29-2.44c-2.84-0.58-4.89-1.54-6.17-2.88c-1.28-1.34-1.91-3.21-1.91-5.6c0-2.47,0.85-4.47,2.56-6.01
			c1.7-1.54,3.92-2.31,6.65-2.31c1.76,0,3.8,0.33,6.15,0.98c1.1,0.31,1.91,0.47,2.43,0.47c0.74,0,1.54-0.27,2.41-0.8L541.22,280.78z
			 M541.22,295.73c2.04,1.61,3.06,3.81,3.06,6.61c0,2.98-1.11,5.51-3.33,7.58c-2.22,2.07-4.92,3.1-8.1,3.1
			c-1.62,0-3.08-0.17-4.39-0.52l-3.6-0.91c-0.84-0.22-1.74-0.33-2.7-0.33c-0.86,0-1.64,0.18-2.36,0.54l-0.27-0.68
			c0.78-0.37,1.58-0.56,2.39-0.56c0.9,0,1.93,0.14,3.08,0.42l3.47,0.87c1.38,0.34,2.84,0.52,4.37,0.52c3,0,5.56-1,7.67-2.99
			c2.11-1.99,3.16-4.4,3.16-7.23c0-2.39-0.81-4.48-2.43-6.28V295.73z M522.38,294.89l0.77,0.45c0.5,0.92,1.94,1.69,4.34,2.3
			l3.62,0.94c2.46,0.64,4.1,1.19,4.92,1.65c0.82,0.46,1.4,1.16,1.74,2.1l-0.16,0.09c-0.68-0.81-1.41-1.41-2.2-1.78
			c-0.79-0.37-2.3-0.84-4.54-1.38c-3.24-0.78-5.42-1.46-6.53-2.03C523.25,296.65,522.59,295.87,522.38,294.89z M525.2,302.48
			c0.56,2.81,2.04,4.8,4.46,5.98v0.19c-2.79-0.84-4.48-2.86-5.06-6.05L525.2,302.48z M536.05,286.43c-1.65-1.83-3.42-2.74-5.31-2.74
			c-1.14,0-2.09,0.34-2.84,1.03c-0.75,0.69-1.13,1.56-1.13,2.62c0,1.16,0.76,2.34,2.27,3.56l0.18,0.12l-0.11,0.19
			c-1.98-0.92-2.97-2.26-2.97-4.01c0-1.22,0.42-2.21,1.26-2.98s1.94-1.15,3.29-1.15c1.29,0,2.42,0.29,3.39,0.85
			c0.97,0.57,1.68,1.37,2.13,2.4L536.05,286.43z M542.62,281.77l-0.2,0.35c-0.62,1.08-1.14,2.11-1.58,3.09
			c-1.05,2.3-1.64,3.58-1.78,3.84l-0.11,0.16l-0.54-0.23l0.09-0.21c0.44-1.03,1.07-2.37,1.89-4.03l1.53-3.09l0.11-0.19
			L542.62,281.77z"/>
	</g>
</g>
</svg>
